<?xml version="1.0" standalone="no"?>
<!DOCTYPE svg PUBLIC "-//W3C//DTD SVG 20010904//EN"
 "http://www.w3.org/TR/2001/REC-SVG-20010904/DTD/svg10.dtd">
<svg version="1.0" xmlns="http://www.w3.org/2000/svg"
 width="500.000000pt" height="500.000000pt" viewBox="0 0 500.000000 500.000000"
 preserveAspectRatio="xMidYMid meet" >

<g transform="translate(0.000000,500.000000) scale(0.100000,-0.100000)"
fill="#000000" stroke="none">
<path d="M2260 4630 c-618 -60 -1143 -372 -1486 -883 -47 -68 -174 -305 -174
-322 0 -3 27 -5 59 -5 l59 0 52 98 c152 285 361 517 630 697 218 146 524 257
816 296 147 19 421 7 574 -26 155 -32 332 -91 453 -149 365 -176 682 -489 858
-848 l33 -68 63 0 62 0 -35 77 c-228 502 -710 911 -1253 1064 -212 60 -511 89
-711 69z"/>
<path d="M2245 4360 c-471 -54 -904 -300 -1185 -675 -75 -100 -166 -252 -157
-261 14 -14 38 9 73 72 58 103 171 249 270 348 214 214 477 364 774 441 178
46 465 59 664 29 186 -27 427 -113 595 -212 237 -139 470 -375 607 -614 24
-44 45 -68 56 -68 22 0 17 13 -41 110 -231 386 -609 671 -1036 781 -186 48
-445 69 -620 49z"/>
<path d="M2353 4161 c-95 -33 -156 -99 -183 -198 -7 -30 -16 -43 -29 -43 -38
0 -111 -33 -143 -65 -110 -113 -58 -296 96 -336 23 -5 46 -12 53 -14 17 -6 26
-101 15 -168 -8 -52 -7 -57 7 -51 57 25 132 46 194 54 76 9 245 -1 306 -20 50
-14 49 -6 -1 23 -98 57 -245 68 -415 32 l-33 -7 -1 53 c0 30 -6 72 -12 93 -12
37 -15 40 -67 51 -109 21 -157 75 -147 163 6 56 31 91 87 120 66 33 76 30 94
-30 8 -29 22 -62 30 -73 13 -18 13 -16 1 20 -42 119 11 256 123 323 43 25 56
27 147 27 84 0 107 -4 141 -22 74 -40 122 -112 131 -198 l6 -53 76 -4 c135 -6
194 -56 194 -165 0 -86 -47 -132 -152 -147 -43 -7 -43 -6 -37 20 17 65 18 84
7 84 -6 0 -11 -6 -11 -13 0 -23 -51 -87 -93 -119 -40 -29 -41 -30 -12 -24 17
4 37 9 47 12 14 4 15 -1 11 -33 -2 -21 0 -56 5 -78 9 -34 10 -36 11 -12 1 16
6 48 12 72 l11 43 72 4 c61 3 79 8 110 31 53 41 68 69 73 141 7 77 -9 130 -50
174 -36 37 -121 72 -177 72 -38 0 -40 2 -51 43 -17 65 -59 135 -101 169 -81
64 -238 86 -345 49z"/>
<path d="M110 3220 c0 -7 395 -10 1165 -10 770 0 1165 3 1165 10 0 7 -395 10
-1165 10 -770 0 -1165 -3 -1165 -10z"/>
<path d="M2520 2835 l0 -395 1205 0 1205 0 0 395 0 395 -1205 0 -1205 0 0
-395z m377 279 c74 -24 78 -33 52 -87 -25 -51 -31 -54 -69 -32 -48 27 -130 12
-130 -25 0 -17 34 -42 105 -75 40 -20 85 -49 99 -65 70 -84 25 -220 -82 -250
-86 -24 -221 -1 -273 46 -18 16 -18 18 8 63 15 25 28 48 30 50 1 2 25 -8 52
-22 56 -31 121 -36 145 -11 33 32 11 64 -64 97 -99 43 -140 93 -140 170 0 117
131 186 267 141z m273 -99 l0 -105 85 0 85 0 0 105 0 106 63 -3 62 -3 3 -267
2 -268 -65 0 -65 0 0 105 0 105 -85 0 -85 0 0 -105 0 -105 -65 0 -65 0 0 270
0 270 65 0 65 0 0 -105z m750 -156 c58 -144 107 -265 108 -270 2 -5 -28 -9
-66 -9 l-70 0 -17 50 -17 50 -103 0 -103 0 -17 -50 -17 -50 -70 0 c-38 0 -68
4 -66 9 2 5 50 126 108 270 l105 261 60 0 60 0 105 -261z m410 239 c55 -29 81
-64 87 -120 7 -59 -24 -132 -66 -156 -17 -9 -31 -21 -31 -25 0 -5 33 -48 73
-95 40 -48 78 -95 86 -104 13 -17 8 -18 -67 -18 l-81 0 -78 101 -78 102 -3
-102 -3 -101 -59 0 -60 0 0 270 0 270 118 0 c102 0 123 -3 162 -22z m500 -33
l0 -55 -95 0 -95 0 0 -50 0 -49 88 -3 87 -3 3 -57 3 -58 -91 0 -90 0 0 -50 0
-50 95 0 95 0 0 -55 0 -55 -160 0 -160 0 0 270 0 270 160 0 160 0 0 -55z"/>
<path d="M3750 2938 c0 -3 -11 -35 -25 -72 l-25 -66 55 0 55 0 -25 67 c-23 61
-35 85 -35 71z"/>
<path d="M4177 3013 c-4 -3 -7 -35 -7 -71 l0 -65 40 6 c23 3 47 11 55 17 18
15 20 84 3 97 -17 14 -83 25 -91 16z"/>
<path d="M1153 3094 c-62 -23 -136 -94 -163 -156 -18 -42 -21 -65 -18 -118 3
-36 13 -80 22 -98 25 -49 85 -105 141 -132 67 -32 178 -33 248 -2 l48 21 -26
50 -25 50 -35 -14 c-77 -33 -179 -6 -222 58 -31 46 -31 121 0 168 26 40 97 79
143 79 17 0 50 -7 73 -15 l41 -14 25 50 26 50 -38 16 c-52 23 -186 27 -240 7z"/>
<path d="M150 2835 l0 -265 60 0 60 0 0 107 0 106 66 -84 c36 -46 73 -94 83
-107 15 -21 23 -23 89 -20 l73 3 -85 102 c-47 56 -86 106 -86 110 1 4 15 17
33 28 47 29 69 79 64 143 -4 61 -28 99 -78 124 -27 14 -60 18 -156 18 l-123 0
0 -265z m215 150 c28 -27 31 -45 14 -78 -16 -31 -28 -37 -71 -37 l-38 0 0 70
0 70 35 0 c25 0 44 -8 60 -25z"/>
<path d="M610 2835 l0 -265 155 0 155 0 0 50 0 49 -92 3 -93 3 -3 58 -3 57 91
0 90 0 0 50 0 50 -90 0 -90 0 0 55 0 55 95 0 95 0 0 50 0 50 -155 0 -155 0 0
-265z"/>
<path d="M1480 2835 l0 -265 60 0 60 0 0 265 0 265 -60 0 -60 0 0 -265z"/>
<path d="M1680 2835 l0 -265 60 0 60 0 0 100 0 100 58 0 c64 0 125 24 159 61
48 52 49 165 1 216 -40 44 -77 53 -213 53 l-125 0 0 -265z m213 164 c30 -16
37 -28 37 -66 0 -39 -29 -62 -90 -70 l-40 -6 0 77 0 76 36 0 c19 0 45 -5 57
-11z"/>
<path d="M2110 2835 l0 -265 155 0 155 0 0 50 0 49 -92 3 -93 3 -3 58 -3 57
91 0 90 0 0 50 0 50 -90 0 -90 0 0 55 0 55 95 0 95 0 0 50 0 50 -155 0 -155 0
0 -265z"/>
<path d="M110 2455 c0 -13 136 -15 1165 -15 1029 0 1165 2 1165 15 0 13 -136
15 -1165 15 -1029 0 -1165 -2 -1165 -15z"/>
<path d="M3540 2339 c0 -5 5 -7 10 -4 6 3 10 8 10 11 0 2 -4 4 -10 4 -5 0 -10
-5 -10 -11z"/>
<path d="M4234 2318 c-6 -7 -16 -46 -22 -86 -14 -87 -46 -153 -101 -209 -114
-118 -267 -164 -617 -184 -301 -17 -593 0 -1419 81 -479 47 -606 53 -968 47
-394 -6 -524 -22 -721 -88 -116 -39 -256 -107 -256 -125 0 -8 3 -14 6 -14 3 0
56 20 117 44 236 94 379 116 792 123 349 5 587 -7 1081 -57 663 -67 740 -72
1107 -77 496 -7 649 9 815 88 167 80 293 279 265 421 -8 38 -12 43 -39 46 -17
2 -35 -3 -40 -10z"/>
<path d="M3236 2283 c-11 -11 -6 -23 9 -23 8 0 15 4 15 9 0 13 -16 22 -24 14z"/>
<path d="M3395 2255 c-16 -9 -37 -28 -46 -44 -11 -18 -31 -33 -55 -41 -50 -16
-150 -66 -187 -94 -16 -11 -35 -33 -43 -49 -26 -49 8 -44 76 11 34 28 94 66
133 86 70 36 73 37 124 25 47 -11 55 -10 100 12 40 20 49 29 51 55 2 24 -2 33
-23 42 -35 16 -94 15 -130 -3z m125 -45 c0 -15 -56 -40 -89 -40 -45 0 -45 15
0 17 22 0 50 8 62 16 27 19 27 19 27 7z"/>
<path d="M3604 2239 c-9 -15 12 -33 30 -26 9 4 16 13 16 22 0 17 -35 21 -46 4z"/>
<path d="M3745 2181 c-33 -10 -85 -31 -115 -47 -36 -19 -70 -29 -100 -30 -33
0 -59 -9 -97 -33 -29 -18 -53 -37 -53 -43 0 -5 16 0 35 12 19 12 43 20 52 18
13 -3 2 -13 -34 -33 -29 -17 -53 -33 -53 -37 0 -12 7 -10 60 17 61 31 65 20 7
-18 -39 -27 -40 -28 -12 -22 47 10 115 54 125 80 5 13 22 31 37 38 42 22 156
55 225 67 74 11 92 25 54 40 -36 13 -60 12 -131 -9z"/>
<path d="M4392 2177 c-6 -7 -17 -38 -23 -68 -27 -125 -115 -236 -233 -295 -72
-35 -51 -37 38 -2 141 55 268 209 270 328 1 38 -2 45 -20 48 -11 2 -26 -3 -32
-11z"/>
<path d="M3320 2085 c0 -8 7 -15 15 -15 8 0 15 7 15 15 0 8 -7 15 -15 15 -8 0
-15 -7 -15 -15z"/>
<path d="M780 2084 c-14 -2 -59 -9 -100 -15 -41 -6 -113 -22 -160 -36 -97 -27
-252 -84 -247 -90 2 -2 24 4 48 13 141 50 383 88 632 100 75 3 137 9 137 14 0
15 -228 26 -310 14z"/>
<path d="M691 1693 c204 -361 501 -643 862 -818 949 -463 2087 -111 2605 806
18 31 32 59 32 63 0 3 -28 6 -62 6 l-63 0 -37 -64 c-91 -156 -273 -364 -424
-486 -267 -215 -581 -349 -939 -401 -123 -18 -375 -15 -505 5 -552 88 -1013
385 -1307 844 l-66 102 -64 0 -64 0 32 -57z"/>
<path d="M987 1723 c145 -231 386 -450 643 -587 658 -348 1481 -224 2008 304
84 83 177 197 225 272 21 34 21 38 0 37 -11 0 -45 -37 -82 -89 -75 -105 -234
-266 -341 -346 -679 -507 -1602 -442 -2201 157 -53 53 -127 138 -164 188 -44
61 -73 91 -86 91 -19 0 -19 -1 -2 -27z"/>
<path d="M3761 574 c-2 -31 -40 -39 -51 -11 -7 17 -9 10 -8 -28 0 -27 3 -40 5
-29 6 34 42 38 54 7 14 -37 17 -25 9 32 -4 28 -8 40 -9 29z"/>
<path d="M3983 555 c0 -22 2 -30 4 -17 2 12 2 30 0 40 -3 9 -5 -1 -4 -23z"/>
<path d="M876 565 c-10 -27 -7 -52 9 -65 15 -13 55 -5 55 11 0 6 -6 6 -18 0
-25 -13 -44 1 -40 30 3 27 36 38 50 17 8 -10 9 -10 5 2 -5 21 -53 25 -61 5z"/>
<path d="M1103 530 c-1 -30 1 -47 4 -37 5 20 14 22 31 5 9 -9 12 -9 12 -1 0 7
-5 15 -11 19 -8 4 -8 9 0 17 6 6 11 16 11 21 0 6 -5 5 -12 -2 -18 -18 -26 -15
-31 11 -2 12 -4 -3 -4 -33z"/>
<path d="M1233 564 c-4 -10 -2 -19 4 -21 5 -2 19 -10 29 -18 25 -18 9 -33 -18
-16 -17 10 -19 10 -16 -1 3 -7 17 -14 31 -16 22 -3 27 1 27 18 0 13 -9 24 -25
30 -14 5 -25 14 -25 20 0 13 37 13 43 0 3 -6 4 -5 3 2 -4 21 -45 22 -53 2z"/>
<path d="M1312 535 c0 -36 2 -43 7 -25 4 14 13 25 21 25 8 0 17 -11 21 -25 5
-17 7 -19 8 -7 2 28 -19 59 -34 53 -8 -3 -16 3 -18 12 -3 9 -5 -5 -5 -33z"/>
<path d="M1633 535 c0 -27 2 -38 4 -22 2 15 2 37 0 50 -2 12 -4 0 -4 -28z"/>
<path d="M2073 560 c9 -13 17 -36 18 -50 1 -23 2 -22 10 7 5 18 14 35 19 38 6
3 10 12 10 18 0 7 -7 3 -15 -7 -14 -19 -15 -19 -37 0 l-22 19 17 -25z"/>
<path d="M2377 574 c-4 -4 -7 -26 -7 -48 1 -34 3 -38 11 -23 10 17 12 17 36 2
17 -12 23 -13 17 -4 -5 8 -9 28 -9 44 0 23 -5 31 -20 33 -12 2 -24 0 -28 -4z
m38 -25 c0 -7 -8 -15 -17 -17 -18 -3 -25 18 -11 32 10 10 28 1 28 -15z"/>
<path d="M2840 544 c0 -32 -2 -36 -21 -31 -16 4 -19 3 -11 -5 20 -20 42 -1 42
37 0 19 -2 35 -5 35 -3 0 -5 -16 -5 -36z"/>
<path d="M3307 573 c-15 -15 -5 -32 25 -42 25 -9 29 -14 20 -23 -10 -10 -17
-10 -32 0 -16 10 -18 9 -13 -4 7 -20 58 -15 58 6 0 8 -12 21 -27 28 -35 16
-37 36 -3 30 14 -3 25 -1 25 3 0 10 -44 12 -53 2z"/>
<path d="M3388 558 c-6 -17 11 -68 23 -68 6 0 6 7 0 18 -7 13 -7 22 0 29 6 6
5 14 -5 22 -11 9 -15 9 -18 -1z"/>
<path d="M3558 558 c-6 -17 11 -68 23 -68 6 0 6 7 0 18 -7 13 -7 22 0 29 6 6
5 14 -5 22 -11 9 -15 9 -18 -1z"/>
<path d="M960 539 c-10 -17 -9 -24 2 -36 22 -21 50 -6 46 26 -4 33 -33 39 -48
10z m36 -25 c-5 -13 -10 -14 -18 -6 -6 6 -8 18 -4 28 5 13 10 14 18 6 6 -6 8
-18 4 -28z"/>
<path d="M1043 553 c-19 -7 -16 -53 3 -60 24 -9 46 24 33 48 -10 19 -15 21
-36 12z m26 -40 c-15 -18 -34 -1 -25 22 5 14 9 15 21 5 12 -10 13 -16 4 -27z"/>
<path d="M1394 548 c-5 -8 -2 -9 9 -5 10 3 17 2 17 -3 0 -5 -9 -12 -21 -15
-27 -9 -19 -30 12 -30 27 0 38 28 19 50 -15 18 -26 19 -36 3z m26 -38 c0 -5
-7 -10 -16 -10 -8 0 -12 5 -9 10 3 6 10 10 16 10 5 0 9 -4 9 -10z"/>
<path d="M1650 528 c0 -15 4 -29 8 -32 5 -3 8 5 8 17 -1 13 6 23 17 25 13 3
17 -3 18 -25 0 -15 3 -22 6 -15 3 7 2 23 -1 36 -4 18 -12 24 -31 22 -20 -1
-25 -6 -25 -28z"/>
<path d="M1725 550 c-8 -14 3 -30 21 -30 8 0 13 -4 9 -10 -3 -5 -13 -6 -23 -3
-13 5 -15 3 -5 -7 6 -7 19 -10 27 -7 20 8 21 37 1 37 -8 0 -15 5 -15 11 0 6 7
8 16 5 8 -3 12 -2 9 4 -8 13 -32 13 -40 0z"/>
<path d="M1780 510 c0 -25 4 -40 8 -34 4 7 16 13 27 15 15 3 20 12 20 34 0 26
-4 30 -27 30 -27 1 -28 -1 -28 -45z m50 15 c0 -19 -20 -29 -32 -17 -8 8 -7 16
2 26 14 17 30 12 30 -9z"/>
<path d="M2150 539 c-10 -17 -9 -24 2 -36 22 -21 50 -6 46 26 -4 33 -33 39
-48 10z m36 -25 c-5 -13 -10 -14 -18 -6 -6 6 -8 18 -4 28 5 13 10 14 18 6 6
-6 8 -18 4 -28z"/>
<path d="M2532 548 c-29 -29 5 -80 39 -56 11 8 11 9 -3 5 -24 -8 -44 19 -28
38 10 12 15 13 28 3 13 -11 14 -10 10 2 -6 20 -30 24 -46 8z"/>
<path d="M2620 511 c0 -25 4 -41 8 -35 4 7 16 13 27 15 13 3 21 14 23 32 2 15
0 27 -5 28 -4 0 -18 2 -30 3 -21 2 -23 -2 -23 -43z m50 14 c0 -19 -20 -29 -32
-17 -8 8 -7 16 2 26 14 17 30 12 30 -9z"/>
<path d="M2883 553 c-19 -7 -16 -53 3 -60 24 -9 46 24 33 48 -10 19 -15 21
-36 12z m26 -40 c-15 -18 -34 -1 -25 22 5 14 9 15 21 5 12 -10 13 -16 4 -27z"/>
<path d="M3051 547 c1 -7 5 -23 9 -37 l8 -25 1 28 c1 16 7 27 15 27 8 0 17
-12 19 -27 4 -21 4 -19 3 7 -1 30 -4 35 -28 37 -17 1 -28 -3 -27 -10z"/>
<path d="M3449 548 c-11 -8 -11 -9 3 -5 25 8 30 -5 7 -17 -31 -15 -29 -30 4
-34 24 -3 27 0 27 26 0 32 -19 46 -41 30z m26 -38 c-3 -5 -11 -10 -16 -10 -6
0 -7 5 -4 10 3 6 11 10 16 10 6 0 7 -4 4 -10z"/>
<path d="M3605 550 c-8 -14 3 -30 21 -30 8 0 13 -4 9 -10 -3 -5 -13 -6 -23 -3
-13 5 -15 3 -5 -7 6 -7 19 -10 27 -7 20 8 21 37 1 37 -8 0 -15 5 -15 11 0 6 7
8 16 5 8 -3 12 -2 9 4 -8 13 -32 13 -40 0z"/>
<path d="M1451 518 c1 -22 3 -26 6 -13 3 11 10 26 15 33 8 9 6 12 -6 12 -12 0
-16 -9 -15 -32z"/>
<path d="M1500 535 c-18 -21 -5 -45 25 -45 14 0 25 4 25 9 0 5 -9 7 -20 4 -11
-3 -20 0 -20 6 0 6 9 11 20 11 11 0 20 7 20 15 0 19 -34 19 -50 0z"/>
<path d="M1862 520 c0 -19 2 -27 5 -17 2 9 2 25 0 35 -3 9 -5 1 -5 -18z"/>
<path d="M1881 518 c1 -22 3 -26 6 -13 3 11 10 26 15 33 8 9 6 12 -6 12 -12 0
-16 -9 -15 -32z"/>
<path d="M1937 543 c-4 -3 -7 -17 -7 -30 0 -18 5 -23 25 -23 14 0 25 4 25 9 0
5 -9 7 -20 4 -11 -3 -20 0 -20 6 0 6 9 11 20 11 11 0 20 7 20 15 0 15 -31 21
-43 8z"/>
<path d="M2258 528 c-4 -29 -25 -35 -31 -8 -4 18 -5 18 -3 -2 1 -16 8 -24 24
-26 19 -3 22 1 22 27 0 36 -7 41 -12 9z"/>
<path d="M2280 520 c0 -16 5 -30 10 -30 6 0 10 8 10 18 0 10 5 23 12 30 9 9 7
12 -10 12 -18 0 -22 -6 -22 -30z"/>
<path d="M2455 530 c-3 -11 -3 -24 0 -30 8 -12 42 -13 49 -1 3 4 -6 6 -21 3
-18 -3 -24 -1 -19 7 4 6 16 11 27 11 10 0 19 7 19 15 0 23 -47 19 -55 -5z m42
4 c-3 -3 -12 -4 -19 -1 -8 3 -5 6 6 6 11 1 17 -2 13 -5z"/>
<path d="M2602 520 c0 -19 2 -27 5 -17 2 9 2 25 0 35 -3 9 -5 1 -5 -18z"/>
<path d="M2700 535 c-18 -21 -5 -45 25 -45 14 0 25 4 25 9 0 5 -9 7 -20 4 -11
-3 -20 0 -20 6 0 6 9 11 20 11 11 0 20 7 20 15 0 19 -34 19 -50 0z"/>
<path d="M2943 525 c2 -23 7 -31 25 -33 19 -3 22 1 21 30 -1 28 -2 29 -7 10
-9 -30 -25 -30 -34 0 -6 19 -7 18 -5 -7z"/>
<path d="M3011 518 c1 -22 3 -26 6 -13 3 11 10 26 15 33 8 9 6 12 -6 12 -12 0
-16 -9 -15 -32z"/>
<path d="M3130 535 c-18 -21 -5 -45 25 -45 14 0 25 4 25 9 0 5 -9 7 -20 4 -11
-3 -20 0 -20 6 0 6 9 11 20 11 11 0 20 7 20 15 0 19 -34 19 -50 0z"/>
<path d="M3205 521 c14 -27 14 -35 4 -42 -8 -4 -11 -11 -7 -14 8 -8 34 31 42
65 7 24 6 24 -8 6 -16 -20 -16 -20 -31 0 -13 16 -13 13 0 -15z"/>
<path d="M3501 518 c1 -22 3 -26 6 -13 3 11 10 26 15 33 8 9 6 12 -6 12 -12 0
-16 -9 -15 -32z"/>
<path d="M3794 536 c-3 -9 -4 -23 0 -31 6 -16 41 -21 50 -6 3 4 -6 6 -19 3
-14 -2 -25 0 -25 6 0 6 10 12 23 14 29 4 29 22 -1 26 -13 2 -25 -3 -28 -12z"/>
<path d="M3861 518 c1 -22 3 -26 6 -13 3 11 10 26 15 33 8 9 6 12 -6 12 -12 0
-16 -9 -15 -32z"/>
<path d="M3917 543 c-4 -3 -7 -17 -7 -30 0 -18 5 -23 25 -23 14 0 25 4 25 9 0
5 -9 7 -20 4 -11 -3 -20 0 -20 6 0 6 9 11 20 11 11 0 20 7 20 15 0 15 -31 21
-43 8z"/>
<path d="M1171 494 c0 -11 3 -14 6 -6 3 7 2 16 -1 19 -3 4 -6 -2 -5 -13z"/>
<path d="M1571 494 c0 -11 3 -14 6 -6 3 7 2 16 -1 19 -3 4 -6 -2 -5 -13z"/>
</g>
</svg>
